HIERARCHY
ROOT Hips
{
	OFFSET 0.000000 0.000000 0.000000 
	CHANNELS 6 Xposition Yposition Zposition Zrotation Yrotation Xrotation
	JOINT LeftUpLeg
	{
		OFFSET 1.363060 -1.794630 0.839290 
		CHANNELS 3 Zrotation Yrotation Xrotation
		JOINT LeftLeg
		{
			OFFSET 2.448110 -6.726130 0.000000 
			CHANNELS 3 Zrotation Yrotation Xrotation
			JOINT LeftFoot
			{
				OFFSET 2.562200 -7.039590 0.000000 
				CHANNELS 3 Zrotation Yrotation Xrotation
				JOINT LeftToeBase
				{
					OFFSET 0.157640 -0.433110 2.322550 
					CHANNELS 3 Zrotation Yrotation Xrotation
					End Site
					{
						OFFSET 0.000000 0.000000 0.000000 
					}
				}
			}
		}
	}
	JOINT RightUpLeg
	{
		OFFSET -1.305520 -1.794630 0.839290 
		CHANNELS 3 Zrotation Yrotation Xrotation
		JOINT RightLeg
		{
			OFFSET -2.542530 -6.985550 0.000000 
			CHANNELS 3 Zrotation Yrotation Xrotation
			JOINT RightFoot
			{
				OFFSET -2.568260 -7.056230 0.000000 
				CHANNELS 3 Zrotation Yrotation Xrotation
				JOINT RightToeBase
				{
					OFFSET -0.164730 -0.452590 2.363150 
					CHANNELS 3 Zrotation Yrotation Xrotation
					End Site
					{
						OFFSET 0.000000 0.000000 0.000000 
					}
				}
			}
		}
	}
	JOINT Spine
	{
		OFFSET 0.028270 2.035590 -0.193380 
		CHANNELS 3 Zrotation Yrotation Xrotation
		JOINT Spine1
		{
			OFFSET 0.056720 2.048850 -0.042750 
			CHANNELS 3 Zrotation Yrotation Xrotation
			JOINT Neck1
			{
				OFFSET -0.054170 1.746240 0.172020 
				CHANNELS 3 Zrotation Yrotation Xrotation
				JOINT Head
				{
					OFFSET 0.104070 1.761360 -0.123970 
					CHANNELS 3 Zrotation Yrotation Xrotation
					End Site
					{
						OFFSET 0.000000 0.000000 0.000000 
					}
				}
			}
			JOINT LeftArm
			{
				OFFSET 3.362410 1.200890 -0.311210 
				CHANNELS 3 Zrotation Yrotation Xrotation
				JOINT LeftForeArm
				{
					OFFSET 4.983000 -0.000000 -0.000000 
					CHANNELS 3 Zrotation Yrotation Xrotation
					JOINT LeftHand
					{
						OFFSET 3.483560 -0.000000 -0.000000 
						CHANNELS 3 Zrotation Yrotation Xrotation
						JOINT LeftHandIndex1
						{
							OFFSET 0.715260 -0.000000 -0.000000 
							CHANNELS 3 Zrotation Yrotation Xrotation
							End Site
							{
								OFFSET 0.000000 0.000000 0.000000 
							}
						}
					}
				}
			}
			JOINT RightArm
			{
				OFFSET -3.136600 1.374050 -0.404650 
				CHANNELS 3 Zrotation Yrotation Xrotation
				JOINT RightForeArm
				{
					OFFSET -5.241900 -0.000000 -0.000000 
					CHANNELS 3 Zrotation Yrotation Xrotation
					JOINT RightHand
					{
						OFFSET -3.444170 -0.000000 -0.000000 
						CHANNELS 3 Zrotation Yrotation Xrotation
						JOINT RightHandIndex1
						{
							OFFSET -0.622530 -0.000000 -0.000000 
							CHANNELS 3 Zrotation Yrotation Xrotation
							End Site
							{
								OFFSET 0.000000 0.000000 0.000000 
							}
						}
					}
				}
			}
		}
	}
}
MOTION
Frames: 13
Frame Time: 0.041667
0.166358 19.365087 10.168702 -6.885421 -7.629480 7.734143 -1.556865 -6.358288 -40.047691 3.469840 15.062340 39.918268 1.946378 0.929009 28.357646 0.801800 -5.715200 -15.960200 19.876424 11.663598 22.668216 2.816368 -0.237078 0.822131 -4.412668 -19.892796 50.877142 -0.929000 -6.140200 17.191700 1.531236 4.706080 2.858265 -5.728452 3.169172 -8.049094 2.922390 -0.475860 2.370303 0.257300 -0.104600 0.123600 -78.413968 34.366501 39.519511 124.889827 -62.567954 -91.553744 0.134130 -1.617316 -31.104905 -7.125000 0.000000 0.000000 71.951599 0.281878 44.678533 -123.770736 59.041345 -93.365247 0.273018 1.074033 -7.563386 7.125000 0.000000 0.000000 
0.162088 19.429151 10.722987 -7.061392 -7.305592 7.703258 -0.948916 -6.428045 -38.524435 1.988462 13.450283 34.434338 2.028953 2.651063 30.236362 0.739100 -5.492300 -15.318200 20.613247 11.880275 21.701357 2.299839 -1.860499 5.338395 -4.025713 -17.857267 49.755208 -0.928800 -6.139400 17.189500 1.524544 4.644792 2.926976 -5.794823 3.133370 -7.997935 2.791257 -0.589042 2.104639 0.212600 -0.166300 0.057700 -78.864892 34.498404 38.691748 125.611446 -62.311597 -92.024527 0.138732 -1.563138 -30.902304 -7.125000 0.000000 0.000000 71.600889 0.075976 45.488288 -123.155009 59.277291 -92.945204 0.295820 1.069696 -7.400046 7.125000 0.000000 0.000000 
0.154275 19.475506 11.269251 -7.212909 -7.215987 7.680995 -0.342783 -6.376208 -37.008600 0.793284 11.839975 29.401931 2.026879 4.503695 31.778913 0.836800 -5.835500 -16.308000 21.428095 12.350625 21.202451 1.740957 -3.225096 9.347001 -3.626871 -16.226006 48.425379 -1.052800 -6.524500 18.314200 1.624828 4.627354 2.978424 -5.608353 3.124842 -8.008577 2.666014 -0.479403 1.978925 0.186300 -0.114500 0.038100 -79.575518 34.368808 37.749843 126.007808 -62.150670 -92.295405 0.136392 -1.516402 -30.782321 -7.125000 0.000000 0.000000 71.080628 -0.108943 46.389306 -122.147034 59.648660 -92.256355 0.335134 1.065616 -7.128643 7.125000 0.000000 0.000000 
0.140212 19.501236 11.823120 -7.457982 -7.277702 7.703015 0.256750 -6.231283 -35.644981 -0.093456 10.380485 25.107310 2.005770 6.148286 33.086516 0.786500 -5.661400 -15.805100 22.305182 13.012469 21.041618 1.170788 -4.416689 12.925405 -3.339559 -15.094985 47.363651 -1.293500 -7.205900 20.326900 1.645350 4.805058 2.929185 -5.529748 3.203753 -8.012708 2.606606 -0.439969 1.773194 0.159800 -0.099500 -0.070600 -79.699250 34.471924 37.376795 126.875042 -61.823170 -92.857077 0.140831 -1.478416 -30.743870 -7.125000 0.000000 0.000000 70.841890 -0.756989 47.007934 -120.903019 60.103460 -91.416878 0.385157 1.075448 -6.954304 7.125000 0.000000 0.000000 
0.124587 19.510507 12.378030 -7.865821 -7.398520 7.696606 0.834177 -5.954541 -34.521618 -0.739269 9.098632 21.525041 1.970800 7.374558 33.873542 0.980900 -6.304500 -17.670400 23.384593 13.737555 20.979994 0.488721 -5.628185 16.583036 -2.915144 -14.735714 45.993018 -1.307500 -7.243500 20.438900 1.619495 5.112011 2.781685 -5.615734 3.327209 -8.069796 2.452210 -0.545732 1.112129 0.057300 -0.169300 -0.475700 -79.309025 34.638086 37.450034 127.770237 -61.488427 -93.415712 0.114499 -1.456802 -30.604124 -7.125000 0.000000 0.000000 70.863755 -1.765237 47.388316 -119.611897 60.568435 -90.546972 0.437796 1.099695 -6.956999 7.125000 0.000000 0.000000 
0.109170 19.521132 12.927211 -8.539772 -7.537413 7.577906 1.505684 -5.585599 -33.290392 -1.121077 8.083801 18.814673 1.767659 8.440477 33.787536 1.220900 -7.008400 -19.740400 24.442530 13.336453 20.476252 -0.332716 -6.811388 20.381489 -2.530378 -14.467192 44.717213 -1.275900 -7.158700 20.186400 1.695048 5.339508 2.777676 -5.765197 3.394509 -8.059230 2.312088 -0.580770 0.547998 -0.033900 -0.202400 -0.797500 -79.282356 34.344403 37.154667 128.193339 -61.295170 -93.700640 0.113792 -1.452571 -30.515261 -7.125000 0.000000 0.000000 70.971369 -2.734695 47.826523 -118.425861 60.980432 -89.743800 0.487240 1.119209 -6.669656 7.125000 0.000000 0.000000 
0.092607 19.510924 13.463371 -8.849528 -7.379690 7.431232 1.818826 -5.574406 -32.405063 -1.331268 7.339805 16.843859 1.287660 9.739692 33.004782 0.982400 -6.309100 -17.684000 25.272810 12.730845 19.658950 -1.267015 -7.990173 24.316715 -2.201694 -14.415099 43.615417 -0.950000 -6.207200 17.386700 1.671362 5.395578 2.929269 -5.844454 3.398164 -7.903645 2.295227 -0.622268 -0.329006 -0.056500 -0.240000 -1.191500 -79.256677 33.190028 36.906348 127.987741 -61.297729 -93.613987 0.143149 -1.457870 -30.585681 -7.125000 0.000000 0.000000 71.085458 -3.305758 47.998220 -116.437082 61.575028 -88.418050 0.579717 1.140837 -6.324524 7.125000 0.000000 0.000000 
0.074794 19.477902 13.994426 -9.013869 -6.947936 7.318575 1.767441 -5.467157 -31.829672 -1.428694 6.863933 15.576131 0.805341 11.099122 32.656046 1.002300 -6.370800 -17.864300 25.989669 11.865646 18.534070 -2.346446 -9.166539 28.366282 -1.850793 -15.023097 42.609038 -0.497000 -4.519900 12.544200 1.667587 5.244568 3.095222 -5.755259 3.316639 -7.687210 2.381494 -0.615233 -1.212726 -0.013700 -0.249600 -1.600800 -79.297689 32.006503 36.652968 127.937708 -61.240352 -93.621018 0.146941 -1.458043 -30.550772 -7.125000 0.000000 0.000000 71.089748 -3.448853 48.134577 -113.411426 62.327401 -86.417323 0.728627 1.173461 -6.041878 7.125000 0.000000 0.000000 
0.064585 19.441026 14.530274 -8.987339 -6.241062 7.241442 1.252992 -5.075997 -31.402248 -1.528551 6.491558 14.695613 0.472839 12.003857 32.527979 1.380200 -7.434100 -21.007900 26.386414 10.642043 16.982885 -3.588801 -10.346495 32.607249 -1.619391 -16.089272 42.118624 -0.323000 -3.653300 10.103100 1.604828 4.898382 3.238203 -5.673282 3.136167 -7.454609 2.508597 -0.551014 -1.245860 0.033600 -0.218400 -1.586200 -79.497953 30.743155 36.322101 127.861476 -61.179144 -93.615566 0.140666 -1.483579 -30.385344 -7.125000 0.000000 0.000000 71.099046 -3.740332 48.100815 -110.758829 62.879201 -84.669019 0.858925 1.218477 -5.712719 7.125000 0.000000 0.000000 
0.058647 19.394150 15.077371 -8.878186 -5.484504 6.962720 0.427194 -4.351051 -30.989557 -1.574081 6.296225 14.302296 0.151461 12.865856 32.500067 1.409700 -7.509600 -21.234300 26.665028 9.352061 15.454670 -4.997126 -11.506440 36.948045 -1.268534 -18.257419 41.533970 -0.444900 -4.279800 11.865100 1.463335 4.516625 3.299513 -5.679485 2.919482 -7.416874 2.798489 -0.397765 -0.932224 0.139400 -0.137600 -1.456400 -79.527144 29.513290 36.168246 127.533056 -61.230312 -93.442229 0.145345 -1.497981 -30.369022 -7.125000 0.000000 0.000000 71.349570 -4.653939 47.878306 -107.797710 63.390313 -82.734692 1.011155 1.266422 -5.465801 7.125000 0.000000 0.000000 
0.053231 19.335086 15.624885 -8.606894 -4.798298 6.452684 -0.451700 -3.762314 -30.348734 -1.597502 6.205868 14.285353 -0.076046 13.324947 32.370318 1.338800 -7.326300 -20.685800 26.770803 8.102967 13.946060 -6.503377 -12.608689 41.495460 -0.779816 -20.689936 40.493225 -0.680500 -5.274600 14.693500 1.246590 4.163766 3.294269 -5.684907 2.705173 -7.621235 3.049949 -0.279183 -0.501641 0.215800 -0.074100 -1.342700 -79.287642 28.369675 36.180161 127.149265 -61.309911 -93.230454 0.164595 -1.509366 -30.803658 -7.125000 0.000000 0.000000 71.591195 -5.867096 47.680550 -103.976475 63.834923 -80.262407 1.223331 1.314870 -5.778745 7.125000 0.000000 0.000000 
0.044272 19.254251 16.163128 -8.419397 -4.288486 6.010991 -1.236116 -3.086165 -29.738501 -1.619276 6.180264 14.519244 -0.002853 13.082776 32.566823 1.431900 -7.566200 -21.403900 26.865581 6.978356 12.313828 -8.051306 -13.617064 46.227371 -0.305372 -22.794102 39.320626 -0.964100 -6.251700 17.516500 1.047785 3.940359 3.236480 -5.703119 2.547245 -7.908936 3.220455 -0.268052 0.026026 0.250400 -0.062300 -1.188800 -78.888843 27.050169 36.464764 126.628798 -61.427870 -92.932773 0.179041 -1.534110 -31.460704 -7.125000 0.000000 0.000000 71.872834 -7.171383 47.404627 -100.000945 64.039378 -77.672327 1.448818 1.358024 -5.723610 7.125000 0.000000 0.000000 
0.030522 19.163936 16.700538 -7.880021 -3.965320 5.713313 -2.350561 -2.148011 -29.340628 -1.663785 6.210139 14.972420 0.378286 12.279566 33.391526 1.323300 -7.285500 -20.563900 26.393016 5.984789 10.471001 -9.628891 -14.536079 51.156132 0.272986 -24.617990 37.673849 -1.049700 -6.515200 18.286800 0.849198 3.729124 3.205651 -5.414014 2.429028 -8.081301 3.558664 -0.250675 0.477063 0.388400 -0.041300 -1.038500 -78.687340 25.577635 36.812614 126.226219 -61.491167 -92.712790 0.181997 -1.551284 -32.145463 -7.125000 0.000000 0.000000 71.984025 -8.283946 47.237321 -95.968587 63.955813 -74.986118 1.672970 1.392748 -5.371183 7.125000 0.000000 0.000000 
